<svg xmlns="http://www.w3.org/2000/svg"
 xmlns:xlink="http://www.w3.org/1999/xlink"
 width="35px" height="35px"  viewBox="0 0 35 35">
<path fill-rule="evenodd"  fill="#454546"
 d="M31.500122,19.499634 C31.500122,19.499634 27.500122,19.499634 27.500122,19.499634 C27.500122,19.499634 27.500122,19.499634 27.500122,19.499634 C26.671509,19.499634 26.0,18.828125 26.0,18.0 C26.0,17.171509 26.671509,16.499756 27.500122,16.499756 C27.500122,16.499756 27.500122,16.499756 27.500122,16.499756 C27.500122,16.499756 31.500122,16.499756 31.500122,16.499756 C32.32849,16.499756 33.0,17.171509 33.0,18.0 C33.0,18.828125 32.32849,19.499634 31.500122,19.499634 ZM29.060669,8.060669 C29.060669,8.060669 26.338379,10.782593 26.338379,10.782593 C26.338379,10.782593 25.560669,11.560425 25.560669,11.560425 C25.560669,11.560425 25.560669,11.560425 25.560669,11.560425 C25.560669,11.560425 25.556274,11.556152 25.556274,11.556152 C25.286743,11.828857 24.914917,11.999878 24.5,11.999878 C23.67163,11.999878 23.0,11.328125 23.0,10.499634 C23.0,10.084717 23.170776,9.713257 23.443726,9.443481 C23.443726,9.443481 23.439331,9.439209 23.439331,9.439209 C23.439331,9.439209 23.439331,9.439209 23.439331,9.439209 C23.439331,9.439209 24.217163,8.661377 24.217163,8.661377 C24.217163,8.661377 26.939331,5.939087 26.939331,5.939087 C26.939331,5.939087 26.939331,5.939087 26.939331,5.939087 C27.210693,5.6676025 27.585815,5.499634 28.000122,5.499634 C28.828491,5.499634 29.5,6.1711426 29.5,6.9995117 C29.5,7.4141846 29.332153,7.7888184 29.060669,8.060669 C29.060669,8.060669 29.060669,8.060669 29.060669,8.060669 ZM17.0,23.999756 C14.761841,23.999756 12.813477,22.771729 11.782349,20.9552 C11.782349,20.9552 11.190674,19.476318 11.190674,19.476318 C11.070801,19.003174 11.0,18.51062 11.0,18.0 C11.0,14.685913 13.686279,11.999878 17.0,11.999878 C20.31372,11.999878 23.000122,14.685913 23.000122,18.0 C23.000122,21.313477 20.31372,23.999756 17.0,23.999756 ZM17.0,14.999756 C15.343262,14.999756 14.000122,16.34314 14.000122,18.0 C14.000122,19.656616 15.343262,20.999634 17.0,20.999634 C18.65686,20.999634 20.0,19.656616 20.0,18.0 C20.0,16.34314 18.65686,14.999756 17.0,14.999756 ZM17.0,8.999756 C16.17163,8.999756 15.5,8.328247 15.5,7.499756 C15.5,7.499756 15.5,7.499756 15.5,7.499756 C15.5,7.499756 15.5,3.4995117 15.5,3.4995117 C15.5,2.6713867 16.17163,1.9998779 17.0,1.9998779 C17.828491,1.9998779 18.500122,2.6713867 18.500122,3.4995117 C18.500122,3.4995117 18.500122,7.499756 18.500122,7.499756 C18.500122,7.499756 18.500122,7.499756 18.500122,7.499756 C18.500122,8.328247 17.828491,8.999756 17.0,8.999756 ZM10.560791,26.560547 C10.560791,26.560547 10.560791,26.560547 10.560791,26.560547 C10.560791,26.560547 9.782959,27.338379 9.782959,27.338379 C9.782959,27.338379 7.060669,30.060303 7.060669,30.060303 C7.060669,30.060303 7.060669,30.060303 7.060669,30.060303 C6.7891846,30.331787 6.4143066,30.499756 6.000122,30.499756 C5.171631,30.499756 4.5,29.828003 4.5,28.999878 C4.5,28.58545 4.6679688,28.210571 4.939453,27.939087 C4.939453,27.939087 4.939453,27.939087 4.939453,27.939087 C4.939453,27.939087 7.661621,25.216797 7.661621,25.216797 C7.661621,25.216797 8.439331,24.438965 8.439331,24.438965 C8.439331,24.438965 8.439331,24.438965 8.439331,24.438965 C8.439331,24.438965 8.439331,24.438965 8.439331,24.438965 C8.710815,24.16748 9.0859375,23.999756 9.5,23.999756 C10.328369,23.999756 11.0,24.671265 11.0,25.499756 C11.0,25.914062 10.832153,26.28894 10.560791,26.560547 C10.560791,26.560547 10.560791,26.560547 10.560791,26.560547 ZM9.5,11.999878 C9.085205,11.999878 8.713379,11.828857 8.443726,11.556152 C8.443726,11.556152 8.439331,11.560425 8.439331,11.560425 C8.439331,11.560425 8.439331,11.560425 8.439331,11.560425 C8.439331,11.560425 7.661621,10.782593 7.661621,10.782593 C7.661621,10.782593 4.939453,8.060669 4.939453,8.060669 C4.939453,8.060669 4.939453,8.060669 4.939453,8.060669 C4.6679688,7.7888184 4.5,7.4141846 4.5,6.9995117 C4.5,6.1711426 5.171631,5.499634 6.000122,5.499634 C6.4143066,5.499634 6.7891846,5.6676025 7.060669,5.939087 C7.060669,5.939087 7.060669,5.939087 7.060669,5.939087 C7.060669,5.939087 9.782959,8.661377 9.782959,8.661377 C9.782959,8.661377 10.560791,9.439209 10.560791,9.439209 C10.560791,9.439209 10.560791,9.439209 10.560791,9.439209 C10.560791,9.439209 10.556274,9.443481 10.556274,9.443481 C10.829346,9.713257 11.0,10.084717 11.0,10.499634 C11.0,11.328125 10.328369,11.999878 9.5,11.999878 ZM6.5,16.499756 C7.328491,16.499756 8.0,17.171509 8.0,18.0 C8.0,18.828125 7.328491,19.499634 6.5,19.499634 C6.5,19.499634 6.5,19.499634 6.5,19.499634 C6.5,19.499634 2.5,19.499634 2.5,19.499634 C1.6716309,19.499634 1.0,18.828125 1.0,18.0 C1.0,17.171509 1.6716309,16.499756 2.5,16.499756 C2.5,16.499756 6.5,16.499756 6.5,16.499756 C6.5,16.499756 6.5,16.499756 6.5,16.499756 ZM17.0,26.999634 C17.828491,26.999634 18.500122,27.671509 18.500122,28.5 C18.500122,28.5 18.500122,28.5 18.500122,28.5 C18.500122,28.5 18.500122,32.499634 18.500122,32.499634 C18.500122,33.32837 17.828491,33.999268 17.0,33.999268 C16.17163,33.999268 15.5,33.32837 15.5,32.499634 C15.5,32.499634 15.5,28.5 15.5,28.5 C15.5,28.5 15.5,28.5 15.5,28.5 C15.5,27.671509 16.17163,26.999634 17.0,26.999634 ZM24.5,23.999756 C24.914307,23.999756 25.289307,24.16748 25.560669,24.438965 C25.560669,24.438965 25.560669,24.438965 25.560669,24.438965 C25.560669,24.438965 25.560669,24.438965 25.560669,24.438965 C25.560669,24.438965 25.560669,24.438965 25.560669,24.438965 C25.560669,24.438965 26.338379,25.216797 26.338379,25.216797 C26.338379,25.216797 29.060669,27.939087 29.060669,27.939087 C29.060669,27.939087 29.060669,27.939087 29.060669,27.939087 C29.332153,28.210571 29.5,28.58545 29.5,28.999878 C29.5,29.828003 28.828491,30.499756 28.000122,30.499756 C27.585815,30.499756 27.210693,30.331787 26.939331,30.060303 C26.939331,30.060303 26.939331,30.060303 26.939331,30.060303 C26.939331,30.060303 24.217163,27.338379 24.217163,27.338379 C24.217163,27.338379 23.439331,26.560547 23.439331,26.560547 C23.439331,26.560547 23.439331,26.560547 23.439331,26.560547 C23.439331,26.560547 23.439331,26.560547 23.439331,26.560547 C23.439331,26.560547 23.439331,26.560547 23.439331,26.560547 C23.167969,26.28894 23.0,25.914062 23.0,25.499756 C23.0,24.671265 23.67163,23.999756 24.5,23.999756 Z"/>
</svg>