<svg xmlns="http://www.w3.org/2000/svg"
 xmlns:xlink="http://www.w3.org/1999/xlink"
 width="35px" height="29px"  viewBox="0 0 35 29">
<path fill-rule="evenodd"  fill="#454546"
 d="M32.5,27.999634 C32.5,27.999634 3.5,27.999634 3.5,27.999634 C2.6715698,27.999634 2.0,27.328125 2.0,26.49939 C2.0,26.49939 2.0,6.499878 2.0,6.499878 C2.0,5.6711426 2.6715698,5.0 3.5,5.0 C3.5,5.0 9.906433,5.0 9.906433,5.0 C9.906433,5.0 12.308533,2.597412 12.308533,2.597412 C12.5824585,2.2366943 13.011902,1.9997559 13.500061,1.9997559 C13.500061,1.9997559 22.5,1.9997559 22.5,1.9997559 C22.921326,1.9997559 23.30066,2.1744385 23.573242,2.4542236 C23.573242,2.4542236 23.574585,2.453003 23.574585,2.453003 C23.574585,2.453003 26.121399,5.0 26.121399,5.0 C26.121399,5.0 32.5,5.0 32.5,5.0 C33.32849,5.0 33.99994,5.6711426 33.99994,6.499878 C33.99994,6.499878 33.99994,26.49939 33.99994,26.49939 C33.99994,27.328125 33.32849,27.999634 32.5,27.999634 ZM18.0,6.999756 C13.029419,6.999756 8.999939,11.029175 8.999939,15.999512 C8.999939,20.970337 13.029419,24.999756 18.0,24.999756 C22.97052,24.999756 27.0,20.970337 27.0,15.999512 C27.0,11.029175 22.97052,6.999756 18.0,6.999756 ZM18.0,21.999512 C14.686218,21.999512 12.0,19.313477 12.0,15.999512 C12.0,12.686035 14.686218,9.999634 18.0,9.999634 C21.31372,9.999634 24.0,12.686035 24.0,15.999512 C24.0,19.313477 21.31372,21.999512 18.0,21.999512 Z"/>
</svg>