<svg xmlns="http://www.w3.org/2000/svg"
 xmlns:xlink="http://www.w3.org/1999/xlink"
 width="42px" height="32px"  viewBox="0 0 42 32">
<path fill-rule="evenodd"  fill="#454546"
 d="M39.67758,17.289062 C39.67758,17.289062 39.67929,17.290894 39.67929,17.290894 C39.67929,17.290894 32.479248,24.490967 32.479248,24.490967 C32.479248,24.490967 32.47754,24.489136 32.47754,24.489136 C32.15338,24.8042 31.712585,24.999756 31.224976,24.999756 C30.230865,24.999756 29.424896,24.19397 29.424896,23.200073 C29.424896,22.712036 29.620605,22.271362 29.935516,21.947754 C29.935516,21.947754 29.933685,21.945923 29.933685,21.945923 C29.933685,21.945923 35.87021,16.008911 35.87021,16.008911 C35.87021,16.008911 29.952484,10.090942 29.952484,10.090942 C29.952484,10.090942 29.95401,10.089722 29.95401,10.089722 C29.617157,9.762695 29.40622,9.3063965 29.40622,8.799683 C29.40622,7.80542 30.212158,6.999756 31.206177,6.999756 C31.712952,6.999756 32.168915,7.2105713 32.496033,7.5477295 C32.496033,7.5477295 32.498016,7.545288 32.498016,7.545288 C32.498016,7.545288 39.593353,14.640747 39.593353,14.640747 C39.97693,14.970581 40.224976,15.453857 40.224976,16.0 C40.224976,16.506348 40.01422,16.962402 39.67758,17.289062 ZM17.899933,29.210205 C17.64978,29.904175 16.986023,30.400024 16.206207,30.400024 C15.212219,30.400024 14.40625,29.593628 14.40625,28.599976 C14.40625,28.371948 14.448975,28.154663 14.5260315,27.95398 C14.5260315,27.95398 24.11267,2.7891846 24.11267,2.7891846 C24.362701,2.0959473 25.026459,1.5997314 25.806274,1.5997314 C26.800385,1.5997314 27.606262,2.4057617 27.606262,3.3997803 C27.606262,3.6274414 27.563538,3.8450928 27.48639,4.0457764 C27.48639,4.0457764 17.899933,29.210205 17.899933,29.210205 ZM12.078796,10.090942 C12.078796,10.090942 6.16098,16.008911 6.16098,16.008911 C6.16098,16.008911 12.097595,21.945923 12.097595,21.945923 C12.097595,21.945923 12.095795,21.947754 12.095795,21.947754 C12.4105835,22.271362 12.606201,22.712036 12.606201,23.200073 C12.606201,24.19397 11.800354,24.999756 10.806213,24.999756 C10.318726,24.999756 9.87793,24.8042 9.553772,24.489136 C9.553772,24.489136 9.551941,24.490967 9.551941,24.490967 C9.551941,24.490967 2.3519897,17.290894 2.3519897,17.290894 C2.3519897,17.290894 2.3537292,17.289062 2.3537292,17.289062 C2.0169678,16.962402 1.8062134,16.506348 1.8062134,16.0 C1.8062134,15.453857 2.0542603,14.970581 2.4379272,14.640747 C2.4379272,14.640747 9.533173,7.545288 9.533173,7.545288 C9.533173,7.545288 9.535278,7.5477295 9.535278,7.5477295 C9.862366,7.2105713 10.318329,6.999756 10.824921,6.999756 C11.819122,6.999756 12.6249695,7.80542 12.6249695,8.799683 C12.6249695,9.3063965 12.414124,9.762695 12.0772705,10.089722 C12.0772705,10.089722 12.078796,10.090942 12.078796,10.090942 Z"/>
</svg>