<svg xmlns="http://www.w3.org/2000/svg"
 xmlns:xlink="http://www.w3.org/1999/xlink"
 width="32px" height="30px"  viewBox="0 0 32 30">
<path fill-rule="evenodd"  fill="#454546"
 d="M29.440063,23.63977 C29.440063,23.63977 22.23999,23.63977 22.23999,23.63977 C22.23999,23.63977 20.320068,23.63977 20.320068,23.63977 C20.320068,23.63977 20.320068,26.039917 20.320068,26.039917 C20.320068,26.039917 22.23999,27.960083 22.23999,27.960083 C22.23999,27.960083 22.23999,28.439697 22.23999,28.439697 C22.23999,28.439697 9.76001,28.439697 9.76001,28.439697 C9.76001,28.439697 9.76001,27.960083 9.76001,27.960083 C9.76001,27.960083 11.680054,26.039917 11.680054,26.039917 C11.680054,26.039917 11.680054,23.63977 11.680054,23.63977 C11.680054,23.63977 9.76001,23.63977 9.76001,23.63977 C9.76001,23.63977 2.5599976,23.63977 2.5599976,23.63977 C1.7647095,23.63977 1.1200562,22.99524 1.1200562,22.19934 C1.1200562,22.19934 1.1200562,3.000122 1.1200562,3.000122 C1.1200562,2.2044678 1.7647095,1.5599365 2.5599976,1.5599365 C2.5599976,1.5599365 29.440063,1.5599365 29.440063,1.5599365 C30.235352,1.5599365 30.880127,2.2044678 30.880127,3.000122 C30.880127,3.000122 30.880127,22.19934 30.880127,22.19934 C30.880127,22.99524 30.235352,23.63977 29.440063,23.63977 ZM28.960083,3.4797363 C28.960083,3.4797363 3.040039,3.4797363 3.040039,3.4797363 C3.040039,3.4797363 3.040039,19.799805 3.040039,19.799805 C3.040039,19.799805 28.960083,19.799805 28.960083,19.799805 C28.960083,19.799805 28.960083,3.4797363 28.960083,3.4797363 Z"/>
</svg>