<svg xmlns="http://www.w3.org/2000/svg"
 xmlns:xlink="http://www.w3.org/1999/xlink"
 width="38px" height="23px"  viewBox="0 0 38 23">
<path fill-rule="evenodd"  fill="#454546"
 d="M36.548584,11.567261 C36.54779,11.58252 36.54648,11.596924 36.545532,11.611328 C36.54474,11.618774 36.544098,11.626343 36.543427,11.633789 C36.542755,11.644165 36.54065,11.655518 36.539215,11.665894 C36.537903,11.678223 36.53656,11.690796 36.534454,11.703369 C36.534058,11.70459 36.533783,11.706421 36.533783,11.707642 C36.49048,11.986572 36.362213,12.247314 36.165955,12.448364 C35.796783,12.8967285 35.39319,13.31665 34.987488,13.729248 C32.794434,15.955811 30.277496,17.941895 27.521942,19.3833 C25.76062,20.303955 23.87967,21.046265 21.928162,21.403687 C19.78241,21.795898 17.634247,21.776367 15.499725,21.312256 C11.8064575,20.509033 8.460754,18.514038 5.5348816,16.129028 C4.1763916,15.021606 2.8405762,13.810059 1.717804,12.448364 C1.2263794,11.852905 1.2263794,11.147095 1.717804,10.55127 C2.086792,10.10376 2.4904785,9.683228 2.8962708,9.270752 C5.0892334,7.0438232 7.6059875,5.057495 10.361816,3.6169434 C12.122498,2.696289 14.003723,1.9533691 15.955414,1.5963135 C18.101166,1.2037354 20.249023,1.2236328 22.383636,1.6873779 C26.076843,2.4906006 29.422607,4.48584 32.348297,6.8706055 C33.70642,7.9780273 35.042236,9.189453 36.165283,10.551514 C36.36154,10.752563 36.489716,11.013672 36.53311,11.292358 C36.53311,11.293213 36.533417,11.29541 36.533783,11.296875 C36.535797,11.309204 36.53711,11.321411 36.538544,11.334351 C36.539978,11.345093 36.541992,11.355469 36.542755,11.366455 C36.543427,11.373535 36.544098,11.380859 36.54474,11.388916 C36.545807,11.403564 36.54724,11.417969 36.54779,11.432983 C36.54886,11.455322 36.550293,11.477173 36.550293,11.499756 C36.550293,11.522827 36.54962,11.545166 36.548584,11.567261 ZM18.949738,4.624756 C15.304626,4.624756 12.349762,7.579834 12.349762,11.2248535 C12.349762,14.869995 15.304626,17.82483 18.949738,17.82483 C22.594788,17.82483 25.549744,14.869995 25.549744,11.2248535 C25.549744,7.579834 22.594788,4.624756 18.949738,4.624756 ZM18.949738,14.524536 C17.127197,14.524536 15.64975,13.047241 15.64975,11.2248535 C15.64975,9.402222 17.127197,7.925293 18.949738,7.925293 C20.772308,7.925293 22.249756,9.402222 22.249756,11.2248535 C22.249756,13.047241 20.772308,14.524536 18.949738,14.524536 Z"/>
</svg>