<svg xmlns="http://www.w3.org/2000/svg"
 xmlns:xlink="http://www.w3.org/1999/xlink"
 width="34px" height="31px"  viewBox="0 0 34 31">
<path fill-rule="evenodd"  fill="#454546"
 d="M30.963013,9.937134 C27.358398,6.420166 22.433838,4.249878 17.0,4.249878 C11.566284,4.249878 6.6416016,6.420166 3.0371094,9.937134 C3.0371094,9.937134 1.1890869,7.5548096 1.1890869,7.5548096 C5.311157,3.6497803 10.873657,1.2497559 17.0,1.2497559 C23.126465,1.2497559 28.688965,3.6497803 32.811035,7.5548096 C32.811035,7.5548096 30.963013,9.937134 30.963013,9.937134 ZM17.0,8.749756 C21.39563,8.749756 25.360718,10.58252 28.181519,13.522095 C28.181519,13.522095 26.312012,15.9313965 26.312012,15.9313965 C24.02295,13.370972 20.704712,11.75 17.0,11.75 C13.295166,11.75 9.977051,13.370972 7.6881104,15.9313965 C7.6881104,15.9313965 5.8184814,13.522095 5.8184814,13.522095 C8.639404,10.58252 12.604492,8.749756 17.0,8.749756 ZM17.0,16.249756 C19.67163,16.249756 22.030884,17.564331 23.484009,19.576416 C23.484009,19.576416 21.832886,21.704712 21.832886,21.704712 C20.740845,20.218506 18.985718,19.249756 17.0,19.249756 C15.014404,19.249756 13.259277,20.218506 12.167236,21.704712 C12.167236,21.704712 10.516235,19.576416 10.516235,19.576416 C11.969116,17.564331 14.328491,16.249756 17.0,16.249756 ZM17.0,23.749878 C18.65686,23.749878 20.0,25.092896 20.0,26.749756 C20.0,28.406616 18.65686,29.75 17.0,29.75 C15.343262,29.75 14.0,28.406616 14.0,26.749756 C14.0,25.092896 15.343262,23.749878 17.0,23.749878 Z"/>
</svg>